<svg xmlns="http://www.w3.org/2000/svg" width="192" height="192" viewBox="0 0 192 192">
  <rect width="192" height="192" rx="24" fill="#22c55e"/>
  <path d="M96 32C58.55 32 32 58.55 32 96s26.55 64 64 64 64-26.55 64-64S133.45 32 96 32zm0 116c-28.68 0-52-23.32-52-52s23.32-52 52-52 52 23.32 52 52-23.32 52-52 52z" fill="#0a0a0a"/>
  <path d="M96 60c-19.88 0-36 16.12-36 36s16.12 36 36 36 36-16.12 36-36-16.12-36-36-36zm0 60c-13.23 0-24-10.77-24-24s10.77-24 24-24 24 10.77 24 24-10.77 24-24 24z" fill="#0a0a0a"/>
  <circle cx="96" cy="96" r="12" fill="#0a0a0a"/>
</svg>
